<svg xmlns="http://www.w3.org/2000/svg" width="24" height="24" fill="none" stroke="#18181b" stroke-linecap="round" stroke-linejoin="round" stroke-width="2" viewBox="0 0 24 24"><path d="M9.5 2h5A1.5 1.5 0 0 1 16 3.5v2A1.5 1.5 0 0 1 14.5 7h-5A1.5 1.5 0 0 1 8 5.5v-2A1.5 1.5 0 0 1 9.5 2Z"/><path d="M12 7v5"/><path d="M12 12H7a2 2 0 0 0-2 2v3"/><path d="M12 12h5a2 2 0 0 1 2 2v3"/><path d="M2.5 17h5A1.5 1.5 0 0 1 9 18.5v2A1.5 1.5 0 0 1 7.5 22h-5A1.5 1.5 0 0 1 1 20.5v-2A1.5 1.5 0 0 1 2.5 17Z"/><path d="M16.5 17h5A1.5 1.5 0 0 1 23 18.5v2A1.5 1.5 0 0 1 21.5 22h-5A1.5 1.5 0 0 1 15 20.5v-2A1.5 1.5 0 0 1 16.5 17Z"/></svg>